/* XPM */
static char *_wuRHyhO[] = {
/* columns rows colors chars-per-pixel */
"62 75 225 2 ",
"   c #010101",
".  c #070905",
"X  c #0A0A06",
"o  c #0C0D0A",
"O  c #0B0504",
"+  c #150C0B",
"@  c #170B0A",
"#  c #0F110D",
"$  c #0E1007",
"%  c #11120E",
"&  c #1C120E",
"*  c #131512",
"=  c #1C1412",
"-  c #161815",
";  c #191A16",
":  c #1B1C1A",
">  c #161918",
",  c #241A16",
"<  c #251D1B",
"1  c #271A15",
"2  c #281914",
"3  c #1E211D",
"4  c #24221D",
"5  c #2C221B",
"6  c #2A2218",
"7  c #32241E",
"8  c #352A1E",
"9  c #2C2723",
"0  c #342B24",
"q  c #3B2D24",
"w  c #362B27",
"e  c #3B3125",
"r  c #34332B",
"t  c #3C332B",
"y  c #3A382C",
"u  c #3D3B33",
"i  c #3B3732",
"p  c #43352C",
"a  c #433A2E",
"s  c #47382B",
"d  c #443C32",
"f  c #4A3D32",
"g  c #433935",
"h  c #442F25",
"j  c #422C1E",
"k  c #3F4339",
"l  c #4C4334",
"z  c #4B4439",
"x  c #4E493C",
"c  c #444238",
"v  c #534535",
"b  c #544B3B",
"n  c #584939",
"m  c #5C523D",
"M  c #55503E",
"N  c #64543C",
"B  c #624E39",
"V  c #4C4A42",
"C  c #534E42",
"Z  c #584E44",
"A  c #5C5443",
"S  c #54524C",
"D  c #5B554A",
"F  c #5C5A4C",
"G  c #565444",
"H  c #5C5C53",
"J  c #585852",
"K  c #4F5143",
"L  c #625643",
"P  c #635A45",
"I  c #6B5C44",
"U  c #635C4B",
"Y  c #6A5D4A",
"T  c #635547",
"R  c #655D52",
"E  c #5E6056",
"W  c #6C634C",
"Q  c #68624A",
"!  c #72644B",
"~  c #756A4C",
"^  c #77694A",
"/  c #646354",
"(  c #6A6454",
")  c #6C6B5C",
"_  c #6A6758",
"`  c #736B54",
"'  c #7A6C53",
"]  c #716D5B",
"[  c #746955",
"{  c #7C7254",
"}  c #7C735C",
"|  c #78755D",
" . c #6B6B61",
".. c #716D62",
"X. c #6E7165",
"o. c #747364",
"O. c #7A7562",
"+. c #7C7A65",
"@. c #7C7C6B",
"#. c #76766B",
"$. c #7C7E73",
"%. c #847454",
"&. c #83755A",
"*. c #847A5C",
"=. c #8B7D5C",
"-. c #897856",
";. c #947E5A",
":. c #87714B",
">. c #847C63",
",. c #8C7E62",
"<. c #817D6C",
"1. c #827766",
"2. c #807E71",
"3. c #7E8275",
"4. c #7E816B",
"5. c #97835C",
"6. c #8D815C",
"7. c #A5895C",
"8. c #84826C",
"9. c #8B846B",
"0. c #8C8467",
"q. c #93866B",
"w. c #9B8B6A",
"e. c #968867",
"r. c #9C916C",
"t. c #858474",
"y. c #8C8B74",
"u. c #8C8B7B",
"i. c #868578",
"p. c #938C74",
"a. c #978E76",
"s. c #9B9373",
"d. c #94927C",
"f. c #9C957C",
"g. c #9B9779",
"h. c #8F907F",
"j. c #A48B65",
"k. c #A79369",
"l. c #B4996B",
"z. c #A39473",
"x. c #AA9A74",
"c. c #A49A7C",
"v. c #AC9C7C",
"b. c #A59676",
"n. c #B29D76",
"m. c #A18D70",
"M. c #B4A27C",
"N. c #BAA57A",
"B. c #AAA07D",
"V. c #C5AB77",
"C. c #8A8C82",
"Z. c #8D9287",
"A. c #949483",
"S. c #9B9A8C",
"D. c #999786",
"F. c #989B94",
"G. c #908E83",
"H. c #A49C83",
"J. c #A39E8C",
"K. c #A89A84",
"L. c #A39E92",
"P. c #9EA093",
"I. c #ABA284",
"U. c #A4A18C",
"Y. c #ABA48B",
"T. c #B3A484",
"R. c #BCAB84",
"E. c #B3A68B",
"W. c #BBAB8B",
"Q. c #B7AA88",
"!. c #A4A393",
"~. c #ABA694",
"^. c #A4A59B",
"/. c #ABA999",
"(. c #B3AB94",
"). c #B3AD9B",
"_. c #BBAD95",
"`. c #BBB39B",
"'. c #B9B299",
"]. c #BEB28D",
"[. c #A8ABA4",
"{. c #ADB1A8",
"}. c #BBB5A4",
"|. c #BCBAAC",
" X c #B7B4A6",
".X c #BABAB5",
"XX c #B3AEA5",
"oX c #C2AD85",
"OX c #C4B38C",
"+X c #C9B486",
"@X c #C3B59B",
"#X c #C7B998",
"$X c #C0AF97",
"%X c #C3BDAB",
"&X c #C7BCA5",
"*X c #C2BEB2",
"=X c #BEC0BE",
"-X c #D5C298",
";X c #CBC3AD",
":X c #C9C1A8",
">X c #D4C7A9",
",X c #C5C2B4",
"<X c #CAC6B8",
"1X c #D2CBB4",
"2X c #D4CEBB",
"3X c #D8CBB7",
"4X c #DAD4BD",
"5X c #D6D0B9",
"6X c #E1D0B0",
"7X c #BFC0C2",
"8X c #CACAC7",
"9X c #DCD5C3",
"0X c #DEDACC",
"qX c #D9D4C7",
"wX c #D9D8D6",
"eX c #D0CEC9",
"rX c #E3DCCC",
"tX c #E1D9C5",
"yX c #E2DED3",
"uX c #E2DEDB",
"iX c #E7E2D9",
"pX c #DCDDE0",
"aX c #E9E7E5",
"sX c #F0EEEE",
"dX c #DEE0D6",
/* pixels */
"                                                                                                                            ",
"                                                                                                                            ",
"                                                                                                                            ",
"                                                                                                                            ",
"                                                    9 u S X.#.S J H E i *                                                   ",
"                                              + ..).;X1X;X%X%X;X*X;X%XXX XF._ V *                                           ",
"                                            S %X:X:X;X:X;X;X*X%X}.&X%X~.~.!.^.!.!.C.S .                                     ",
"                                          o.1X3X1X;X4X3X*X&X_.(.K.).).H.9.~.(.XX!.D.^.C.#                                   ",
"                                        _ 1X3X9X3X4XtX'.'.~.S.J.i.a./.L.<.|.).).A.t.i.S. ..                                 ",
".                                     V 2X;XqXtXB.9X1X(.U.9.~.8.t.t.S.A.4.XXL.).U.!.u.~.^.S                                 ",
"o                                   r 3X9XtXrX1Xx.yX(.U.8.A.|.@.t.#.t.D.3.u.A.~.D.L.d.t.!.t.V                               ",
"o                                 o *X4XtXrX9X_.&X4XY.'.d.).).~.) 3.X.] A.o.u.S.H.D.(.] t.#.Z.9                             ",
"#                               O #.qX1X9X0X3XI.yX&X(.%X/.XXu.U.h.X.J X.X.3.i.$.Y.9.XXD.n ..t.u..                           ",
"#                               i tXeX(.0X9X5X;XiXeX*X}.}.#.D.y.P.#.Z.X.F.Z.i.u.D.A.J.J.g R O.i.V                           ",
"#                             . L.3XtXD.0X1X0XuXiXeXqX/.XXQ P.d.S. .C.Z.F.{.F.$.1.!.9.D.g R #.t.2.                        . ",
"# .                           ; wX>XuX}.9X;XsXuXaX8XeX^. X_ S.u.) ) 3.Z.F.[.[.F.F L.p.).f Z u.h.D..                         ",
"# .                           r iX<XaX,X2X9XsXpXpX7X=X3.P.+.@.F J J $.C.F.[.^.F...S.u.!.x o.d.L.u.o                         ",
"% .                         . 9 dX5XiX:XeXiXsXwXwX=X[.P.X.) J J S S  .$.F.[.C..X#.J.<.a.x d.S.A.L.%                       . ",
"% .                           4 2XeX0X}.,XaXaXwX7X^.F.X.E J J S S J J $.F.[.Z..X#.y.+.u.x @.i.A.XX3                       o ",
"% .                           c 2X9XqX}.}.pXpX8X.X[.F.3.E J J S S S J  .F.[..X7XD.+.o.y.x ) o.A./.r                       o ",
"# .                           i ,X;X;XU.y.qXaXpXpXwX7X{.F.C.X.E J E $.C.F.{.7X7X[.t.F 8.H _ A.A.!.9                       o ",
"# .                           9 }.:X`.4.8.<XsXsXaXpX8X.X[.F.F.$. .X.C.F.[..X8XwX,XC.Q y.D _ A._ i.%                     . # ",
"# .                           . 4.U.g.) | ,XsX8XJ.A.C.[.[.$.3.F.Z.C.$.$.$.C.{.wXeXD.4.u.G _ i./ H                       o # ",
"# .                             k Q Q P ) eXeX4.) K k S  .V / S. .J J J  .X.$.{.wXF.8.2.o.#...F u                       o * ",
"# .                             * 4.Q A | iX|.4.4.G G K K 3./ H V k R R ..F.#.L.8X{.Z.@.@.X./ K o                   . . o % ",
"# .                             . / d.Q S.aX2X/.|.#.F x c .XP.$.i i J  .$.{.[.[.8X8XL.2.] #.u.r                       . # % ",
"* . .                           . 6 g.F wXsXaXwXeXS.| K Z.wX.X.Xg g  ...C.7X.X.X8X8X|.).` p.i.X                     . o % * ",
"# .                             . $ t.,XqXaXaXiX8XJ.u.{.eXaX[.8XC.g J  .#.[.XX7XeX8X<X%X*.d.) X .                   X # * > ",
"* .                             $ * #.uX0XaXwXqX<X,X8X0X9XaX/.8X*X1.Z ..$.^.[.7X8X8X8X%XS.U.r o . .         . . . . X # * > ",
"* .                         . $ $ * k iXiXyXeX|./.).8X&XrXrXq. X8X%XS...#.F..X7X8X8X<X*X:XF.* o . . . . . . . . . o # * > - ",
"* .                     . . X $ # - 9 0X2XqXqXS.S.*X=XE.iX3Xv.%X8X~./.2...i.XX.X.X|.,X,X*XX.* # # . . . . . o o o # * * - - ",
"* . .               . . X X % % * - > $.qX0X0X,X!.<XS.~.yXaX<X8X3X2.( C.F.$.[.XX{.|.XX X,XV % # o o o # o # # # # # * * - - ",
"% X               . . # # # * * * > > u.4X0X0XqXU.,Xy.eXaXwXF..XwXXXf 2.7X] F.*X.X|.).).).3 * # # # # # # # % * * * * - - - ",
"% .           . . o # # # # * * > > 3 P.,X0X0X;XY.|.dXdX| / F F T _.2.#.[.[ t.!.|./.}.XX).> * * * # % # * # * * * * * - 3 3 ",
"% X   .   . . . . # # * % * * - * - 3 ).5X0X0X;X1XqX0X0X<X4.3 J a.~.L.8XXXA.1.~.).).}.}.^.* * * * * % * * * * * * * - - > 3 ",
"* o . . . X o $ # # * # * > * - - - 3 U.tX0X4X1X,X4.A.g.| G r y Z <.2.L.^.|.!.~.!.).(.~.A.- - * * * % * * * - * - - - 3 3 3 ",
"* + o o $ # $ $ # % * * * - - - : ; 3 O.rX1X4X4XU.u c ~.<XZ.k r D z r c ) /.(.|.%XXXU.}. .: - - > * * * * * - - - - > 3 > 3 ",
"* * # # # # # # * * > > - - - ; 3 ; : c 0X0X9XtX~.S.,XiX,XZ.3.J Z..XH r / p.J.}.<X|.!.).i - * - * * * * * * - * - - - - 3 3 ",
"* * * * # * * * * > * - > > > - 3 4 r u '.4XrX5X}.:X:X0X|.h.E y i.[.^.y G A.D.~.<X<XXX .4 < < < 3 * * % * * - * - 3 > 3 3 3 ",
"- * * * * * * * * - - - - y x Q { ~ Q { q.9XrX5X9X;X;XyX1XZ.J r S u.G.E C G.u.L.}.eXD.5 2 9 9 0 u c - - - - - 3 - - - > 3 3 ",
": * * > * * * : = > < K >.;.^ N l h l N ~ }.9X1X0X:X0X0X<X!.h.4.3.S.S.3.H A.U.U./.<XS 5 9 9 0 p d A g * > > : > - - - : 3 3 ",
": - = * * > : * = w 9.P f.I s e M m e.{ 6.c.:X,X}.:X1X5X/.S.U.A.S.^.S.t.) A.XXU.J. Xd w e d p 0 f G } ] _ V k x Q u 3 3 3 3 ",
": - - > ; > : 9 S XXa.[ c.v 2 } I e.r.6.6.r.g.D.d.Y.).).h.U.Z.4.X.C.P.E _ D.|.t.!.,X~.z l l d w p b } f.8.+.` ! w.{ 3 3 3 3 ",
": : : : : > 4 E.&X&X1.,.n 7 1 s.H.:X5.6.r.5XrX).G h.U.4.h./ K k k X.u.X.] t./._ /.8X.X#.b b f 6 0 Z ` s.| | Q ^ n.~ y 3 3 3 ",
"< : : V ` 8 3 s.&X#Xn ;.p & C p.D.'.6.~ :XrXiX5X) t.t.) 4.k y y y V C ..@.8.D.L.<X*X.X1.C m z a 5 f ,.x.m.{ ~ w.r.` 8.{ ` ` ",
"y ] (.+X+Xb.9.Q.>X&Xh ,.w O #.,.U.Y.6.} 5XiXaXdX5XS.y.| c r y e r w y / O._ ^..X7X7X^.] b b l f < p Y &.8.D m 0.0.M &.{ { e.",
"U ~ $X@X@X@XY.&X*X>Xb.n @ 2 J.Q.p.m ~ ~ rXsXaXiXqX,Xd./ y M e y r a l A _ S.[..X*X.XC.D x v z l < 0 n -.&.b ! r.8.' ` ` &.*.",
"} ,.L ] Y.>X;X6X&X%X&Xp.@ 0 ~.`.s O.6.^ tXiXaXyX5X<X%Xg.G M v v n n m A ) A.^.{..XF.X.b M a z l < & n ;.&.m :.=.-.=.A { 0.s.",
"a.XX_...q XX3XqX1.R %XL.@ f &X&X! :Xe.` 4XiXaXiXeX,X}.U.4.I ^ ^ P m v x o.Z.P.[.[.i.U b A z g p p @ z ,.[ m w.e m %.L 1.q.b.",
"K.f h f L.XXE._ w T %X2.2 [ #X@X{ -Xr.~ 9XiXiXiXeX,X}.(.4.m ^ Q N m l M 4.h.P.F.i._ z d C t t v A @ q ' Y Y s., q -.-.q.R.a.",
"[ _.v.1.%X_.[ p T K.%Xt & O.K.Q.%.`.b.P 0XyXrXrXqX<X}./.s.P Q Q P Q F ) 4.h.Z.3.X.J z i d e w ( l o w T n &.%.e 2 m.z.e.$XW ",
",.q 0 s ~.&XY.u.L.%XZ O O o l s.%.'._.[ 9XiXrX0XqX4X`.).g.P P ~ 4.r._ 4.4.3.4.X./ x d t t t w ,.p   2 f n ' T Y 7 0.x.z.T.' ",
"V E.} T $X>X:X&XK.p D [ <.& + P >.@X&XA 1XtXyXyX0X4X:X|.U.Q P ~ B.(.4.4.+.4.X.) G u r 0 t 9 p m.v O + w f ' ( *.7 [ K.b.M.T.",
"K.7 _ ,.OXf.T 1 O d 1X'._.(.t z >.r.=.m J.9XyXyXtX5X5X1X}.y.Q g.:X:Xg.r.y.y.+.F x u 0 r < w Y c.Y @ + < d =.p.p.2 I b.;.W.@X",
"< K.&XE.$XT.K.V o a.W.tXk.].Q.%.r.` O.f.>.4XtXtX4X4XtX4X5X'.0.1X0X5X%X}.Y.A.#.Q z t y w 2 f 1.q.} < O & v W.s.s.p [ e.! f.$X",
"K.XXK.f v.Q.>XC r ] `.c.x.W M.OXT.*.c.I.I.3X9XtXtXrXtXtX4X5X:XyXiX9X5X%XU.y.| U t 0 = 1 q ! e.e.1.z   9 Z oXp.,.Z v.;.s %.N.",
"c.c.2 p n.#X@XT 1 [ @X(.w.*.e.T.E._.OX>XOX6XtX#Xc.0.:X>Xv.&X9X>X1X>X#Xp.` 8.Q 0 & O 2 0 n :.m.e.T.b   , P ].( , q ,.:.& B l.",
"T.0 O B n.$XK.Z = O.'.#XT.M.6.b.R.R.oXN.n.#X6XR.z.q.@XW.w.b.Q.' 6.c.R.N W r.L 5 < 1 Y ^ -.-.-.x.T.d   @ s k.L & 7 -.N @ B x.",
"L , s ,.#X+X-.Y & 1._.OX#Xn.M.{ z.n.7.&.v.3X+XN.n.%.K.OX>X$Xz.w.Q.>Xx.! b.k.s & 2 m R.;.;.-.b.n.z.t   O 2 e.W 2 q %.f O B f.",
"& v B 7.#X#X1..., ' #X(.#XOXN.-.a.x.w.>.#X#XoXoXl.k.w.n.l.;.-.-.#X].7.m M.w.v a T OXoX;.;.l.7.;.0.+     7 e.O.= f 1.p O f t.",
"w ' B 7.#X>X&.I & ` OX#X:X#XOX#X} s.n.n.n.w.M.W.>X>Xn.m.R.n.N.oX>X#XV.oXR.b.=.A b.#Xl.e.w.k.m.I ^   +   g w.` 1 m L 9 O ^ W.",
"N v n N.+XoXI ! 2 U M.W OXoXN.oXV.5.e.7.l.5.6.:.;.R.>XV.V.n.n.W.OXn.l.m.s.&.Y ' #Xn.R.n.x.j.I %.7 & +   p ;.} < L n 7 , a.&X",
"n 8 s N.V.OXI I 2 P l., s.#X-XQ.V.V.l.M.N.M.r.6.^ N B -.N.-X#XOXN.V.l.l.k.n.w.#XE.K.E.n.7.I ! q.+ g -   0 %.>.m *.` p < p.&X",
"h 2 s 7.+XV.v ! @ d x.e *.x.oXR.oXV.V.j.e.x.b.B.%.' ^ f v B I B j B s h f B _.Q.;.:.7.7.N Z >.T @ n +   f 0.f.y.Y p.2 < a.`.",
"e 2 n k.N.M.0 v O c z.^ P e.p.oXT.T.N.k.;.:.j.7.j.-.Q n l 7 @ @ 7 q w 7 h E.#Xj.:.5.7.B & Z 1.7 , Z O O U ).).f.b p.& 6 d.'.",
"e 2 B e.c.K.6 l . a w.&.e { 0.r.M.k.l.l.l.! ~ N 6.6.%.^ N l 2 @ h s 7 h oXn.j.7.7.;.Z O & ! Y @ f Z < & U Y.).O.Y } & 1 a.(.",
"N s ^ z.H.c., x @ 0 6.e.l ` { 8.6.x.j.w.7.7.I Z ~ %.%.=.=.^ n 8 p 7 h R.l.j.;.;.,.b l   2 ' 8 7 %.] y = A J.Y.T &.F @ 7 K.I.",
"Q l %.s.p.0.& c $ 4 | r.{ 8 ( ` | { s.0.w.n.M.>.W Q &.0.,.{ P p w f E.a.;.&.1.&.b , r   q ! & f J.( p < b J.d.T f.G + 5 k.E.",
"N f w.N.B.r.1 ` e 6 k.b.*.e W { { / Q y.p.6.w.T.q.[ L W } ! v q v Q.a.p.1.&.' a O = 4   l p 7 <.S.D t t z g.( ! w.p @ 5 B.Q.",
"A f v.#X].M.5 8.v : ].].N.5.I r.e.O.G G } *.=.,.,.w.L n w 8 h Y M.e.*.&.,.' 5     w < & T < d s.g.g w R _ f.p &.s.x & 8 I.'.",
"l y Y.;X%X'.6 +.y % B.Y.#XQ.0.g.E.g.w.~ e W ,.{ =.k.z.p.W v q.E.x.x.x.w.W 9 & o X 0 ^ ^ n 2 T I.4.r 9 b +.I T b.w.l : e r.I.",
"t 8 W.'.1.0 X } a $ B.g.I.Q.T.0.q.r.>.I.} w z _ ] } m.oXOX>X+XoXOX#XW.&.z f c y w L :.=.0 w 0.D._ 4 9 d ' s Q I.p.e ; a Y.~.",
"t p _.C .     d.b o p.c.B.I.s.g.0.r.p.*.q.F 6 b >.z.N.OX>X>X&X:X].q.[ ( +.f.O.l / p.s.[ r ` 4.d.b 9 < v P v y.e.&.F F ) I.{ ",
"t w a.& . * U Q.f o ' s.s.T.g.g.s.0.p.6.| y.M 4 t { '.&X:Xc.(.0.m D ) Q d.f.] _ 0.{ 8.d x | Q 9.C 4 0 [ L | { I.h.F l %.6.Q ",
"W s ) X G I.:XOXz = ( g.s.B.s.s.B.s.4.{ ~ | +.C 9 4 a Q >.A a r Z F ) >.d.c.y.9.| +.F d ` +.K d.c 0 A m ` W d.|.4.y v r.r.M "
};
